# xmcd CD database file
# Copyright (C) 1996 Ti Kan
#
# Track frame offsets:
#  150
#  11542
#  21785
#  32962
#  44937
#  56512
#  67272
#  77697
#  89462
#  100870
#
# Disc length: 1491 seconds
#
# Revision: 1
# Processed by: cddbd v1.4b41PL1 Copyright (c) Steve Scherf et al.
# Submitted via: CDWizzard Release:4.10
#
DISCID=8505d10a
DTITLE=Patsy Cline - Patsy Cline: Today, Tomorrow and Forever
DYEAR=1900
DGENRE=
TTITLE0=Just Out of Reach
TTITLE1=Three Cigarettes in an Ashtray
TTITLE2=Stop The Worlld (and Let Me Off)
TTITLE3=Today, Tomorrow and Forever
TTITLE4=Walking after Midnight
TTITLE5=Honky Tonk Merry Go Round
TTITLE6=Walking Dream
TTITLE7=A Poor Man's Roses
TTITLE8=That Wonderful Someone
TTITLE9=Hidin' Out
EXTD=
EXTT0=Patsy Cline
EXTT1=Patsy Cline
EXTT2=Patsy Cline
EXTT3=Patsy Cline
EXTT4=Patsy Cline
EXTT5=Patsy Cline
EXTT6=Patsy Cline
EXTT7=Patsy Cline
EXTT8=Patsy Cline
EXTT9=Patsy Cline
PLAYORDER=
